<svg width="1000" height="1000" viewBox="0 0 1000 1000" fill="none" xmlns="http://www.w3.org/2000/svg">
<rect width="1000" height="1000" rx="120" fill="url(#paint0_radial_1_506)"/>
<rect x="295.286" y="153" width="31.5714" height="31.5714" fill="white"/>
<rect x="263.714" y="184.571" width="31.5714" height="31.5714" fill="white"/>
<rect x="295.286" y="184.571" width="31.5714" height="31.5714" fill="white"/>
<rect x="326.857" y="184.571" width="31.5714" height="31.5714" fill="white"/>
<rect x="358.429" y="184.571" width="31.5714" height="31.5714" fill="white"/>
<rect x="390" y="184.571" width="31.5714" height="31.5714" fill="white"/>
<rect x="421.571" y="184.571" width="31.5714" height="31.5714" fill="white"/>
<rect x="453.143" y="184.571" width="31.5714" height="31.5714" fill="white"/>
<rect x="484.714" y="184.571" width="31.5714" height="31.5714" fill="white"/>
<rect x="516.286" y="184.571" width="31.5714" height="31.5714" fill="white"/>
<rect x="232.143" y="216.143" width="31.5714" height="31.5714" fill="white"/>
<rect x="263.714" y="216.143" width="31.5714" height="31.5714" fill="white"/>
<rect x="295.286" y="216.143" width="31.5714" height="31.5714" fill="white"/>
<rect x="326.857" y="216.143" width="31.5714" height="31.5714" fill="white"/>
<rect x="358.429" y="216.143" width="31.5714" height="31.5714" fill="white"/>
<rect x="390" y="216.143" width="31.5714" height="31.5714" fill="white"/>
<rect x="421.571" y="216.143" width="31.5714" height="31.5714" fill="white"/>
<rect x="453.143" y="216.143" width="31.5714" height="31.5714" fill="white"/>
<rect x="484.714" y="216.143" width="31.5714" height="31.5714" fill="white"/>
<rect x="516.286" y="216.143" width="31.5714" height="31.5714" fill="white"/>
<rect x="547.857" y="216.143" width="31.5714" height="31.5714" fill="white"/>
<rect x="579.429" y="216.143" width="31.5714" height="31.5714" fill="white"/>
<rect x="611" y="216.143" width="31.5714" height="31.5714" fill="white"/>
<rect x="263.714" y="247.714" width="31.5714" height="31.5714" fill="white"/>
<rect x="295.286" y="247.714" width="31.5714" height="31.5714" fill="white"/>
<rect x="326.857" y="247.714" width="31.5714" height="31.5714" fill="white"/>
<rect x="358.429" y="247.714" width="31.5714" height="31.5714" fill="white"/>
<rect x="390" y="247.714" width="31.5714" height="31.5714" fill="white"/>
<rect x="421.571" y="247.714" width="31.5714" height="31.5714" fill="white"/>
<rect x="453.143" y="247.714" width="31.5714" height="31.5714" fill="white"/>
<rect x="484.714" y="247.714" width="31.5714" height="31.5714" fill="white"/>
<rect x="516.286" y="247.714" width="31.5714" height="31.5714" fill="white"/>
<rect x="547.857" y="247.714" width="31.5714" height="31.5714" fill="white"/>
<rect x="579.429" y="247.714" width="31.5714" height="31.5714" fill="white"/>
<rect x="611" y="247.714" width="31.5714" height="31.5714" fill="white"/>
<rect x="642.571" y="247.714" width="31.5714" height="31.5714" fill="white"/>
<rect x="295.286" y="279.286" width="31.5714" height="31.5714" fill="white"/>
<rect x="326.857" y="279.286" width="31.5714" height="31.5714" fill="white"/>
<rect x="358.429" y="279.286" width="31.5714" height="31.5714" fill="white"/>
<rect x="390" y="279.286" width="31.5714" height="31.5714" fill="white"/>
<rect x="421.571" y="279.286" width="31.5714" height="31.5714" fill="white"/>
<rect x="453.143" y="279.286" width="31.5714" height="31.5714" fill="white"/>
<rect x="484.714" y="279.286" width="31.5714" height="31.5714" fill="white"/>
<rect x="516.286" y="279.286" width="31.5714" height="31.5714" fill="white"/>
<rect x="547.857" y="279.286" width="31.5714" height="31.5714" fill="white"/>
<rect x="579.429" y="279.286" width="31.5714" height="31.5714" fill="white"/>
<rect x="611" y="279.286" width="31.5714" height="31.5714" fill="white"/>
<rect x="642.571" y="279.286" width="31.5714" height="31.5714" fill="white"/>
<rect x="674.143" y="279.286" width="31.5714" height="31.5714" fill="white"/>
<rect x="705.714" y="279.286" width="31.5714" height="31.5714" fill="white"/>
<rect x="579.429" y="310.857" width="31.5714" height="31.5714" fill="white"/>
<rect x="611" y="310.857" width="31.5714" height="31.5714" fill="white"/>
<rect x="642.571" y="310.857" width="31.5714" height="31.5714" fill="white"/>
<rect x="674.143" y="310.857" width="31.5714" height="31.5714" fill="white"/>
<rect x="705.714" y="310.857" width="31.5714" height="31.5714" fill="white"/>
<rect x="737.286" y="310.857" width="31.5714" height="31.5714" fill="white"/>
<rect x="642.571" y="342.429" width="31.5714" height="31.5714" fill="white"/>
<rect x="674.143" y="342.429" width="31.5714" height="31.5714" fill="white"/>
<rect x="705.714" y="342.429" width="31.5714" height="31.5714" fill="white"/>
<rect x="737.286" y="342.429" width="31.5714" height="31.5714" fill="white"/>
<rect x="768.857" y="342.429" width="31.5714" height="31.5714" fill="white"/>
<rect x="674.143" y="374" width="31.5714" height="31.5714" fill="white"/>
<rect x="705.714" y="374" width="31.5714" height="31.5714" fill="white"/>
<rect x="737.286" y="374" width="31.5714" height="31.5714" fill="white"/>
<rect x="768.857" y="374" width="31.5714" height="31.5714" fill="white"/>
<rect x="705.714" y="405.571" width="31.5714" height="31.5714" fill="white"/>
<rect x="737.286" y="405.571" width="31.5714" height="31.5714" fill="white"/>
<rect x="768.857" y="405.571" width="31.5714" height="31.5714" fill="white"/>
<rect x="800.429" y="405.571" width="31.5714" height="31.5714" fill="white"/>
<rect x="737.286" y="437.143" width="31.5714" height="31.5714" fill="white"/>
<rect x="768.857" y="437.143" width="31.5714" height="31.5714" fill="white"/>
<rect x="800.429" y="437.143" width="31.5714" height="31.5714" fill="white"/>
<rect x="737.286" y="468.714" width="31.5714" height="31.5714" fill="white"/>
<rect x="768.857" y="468.714" width="31.5714" height="31.5714" fill="white"/>
<rect x="800.429" y="468.714" width="31.5714" height="31.5714" fill="white"/>
<rect x="263.714" y="500.286" width="31.5714" height="31.5714" fill="white"/>
<rect x="295.286" y="500.286" width="31.5714" height="31.5714" fill="white"/>
<rect x="326.857" y="500.286" width="31.5714" height="31.5714" fill="white"/>
<rect x="358.429" y="500.286" width="31.5714" height="31.5714" fill="white"/>
<rect x="390" y="500.286" width="31.5714" height="31.5714" fill="white"/>
<rect x="421.571" y="500.286" width="31.5714" height="31.5714" fill="white"/>
<rect x="737.286" y="500.286" width="31.5714" height="31.5714" fill="white"/>
<rect x="768.857" y="500.286" width="31.5714" height="31.5714" fill="white"/>
<rect x="800.429" y="500.286" width="31.5714" height="31.5714" fill="white"/>
<rect x="232.143" y="531.857" width="31.5714" height="31.5714" fill="white"/>
<rect x="263.714" y="531.857" width="31.5714" height="31.5714" fill="white"/>
<rect x="421.571" y="531.857" width="31.5714" height="31.5714" fill="white"/>
<rect x="453.143" y="531.857" width="31.5714" height="31.5714" fill="white"/>
<rect x="484.714" y="531.857" width="31.5714" height="31.5714" fill="white"/>
<rect x="768.857" y="531.857" width="31.5714" height="31.5714" fill="white"/>
<rect x="800.429" y="531.857" width="31.5714" height="31.5714" fill="white"/>
<rect x="200.571" y="563.429" width="31.5714" height="31.5714" fill="white"/>
<rect x="232.143" y="563.429" width="31.5714" height="31.5714" fill="white"/>
<rect x="453.143" y="563.429" width="31.5714" height="31.5714" fill="white"/>
<rect x="484.714" y="563.429" width="31.5714" height="31.5714" fill="white"/>
<rect x="737.286" y="563.429" width="31.5714" height="31.5714" fill="white"/>
<rect x="768.857" y="563.429" width="31.5714" height="31.5714" fill="white"/>
<rect x="800.429" y="563.429" width="31.5714" height="31.5714" fill="white"/>
<rect x="200.571" y="595" width="31.5714" height="31.5714" fill="white"/>
<rect x="484.714" y="595" width="31.5714" height="31.5714" fill="white"/>
<rect x="516.286" y="595" width="31.5714" height="31.5714" fill="white"/>
<rect x="737.286" y="595" width="31.5714" height="31.5714" fill="white"/>
<rect x="768.857" y="595" width="31.5714" height="31.5714" fill="white"/>
<rect x="800.429" y="595" width="31.5714" height="31.5714" fill="white"/>
<rect x="484.714" y="626.571" width="31.5714" height="31.5714" fill="white"/>
<rect x="516.286" y="626.571" width="31.5714" height="31.5714" fill="white"/>
<rect x="737.286" y="626.571" width="31.5714" height="31.5714" fill="white"/>
<rect x="768.857" y="626.571" width="31.5714" height="31.5714" fill="white"/>
<rect x="169" y="658.143" width="31.5714" height="31.5714" fill="white"/>
<rect x="516.286" y="658.143" width="31.5714" height="31.5714" fill="white"/>
<rect x="547.857" y="658.143" width="31.5714" height="31.5714" fill="white"/>
<rect x="705.714" y="658.143" width="31.5714" height="31.5714" fill="white"/>
<rect x="737.286" y="658.143" width="31.5714" height="31.5714" fill="white"/>
<rect x="768.857" y="658.143" width="31.5714" height="31.5714" fill="white"/>
<rect x="547.857" y="689.714" width="31.5714" height="31.5714" fill="white"/>
<rect x="579.429" y="689.714" width="31.5714" height="31.5714" fill="white"/>
<rect x="611" y="689.714" width="31.5714" height="31.5714" fill="white"/>
<rect x="642.571" y="689.714" width="31.5714" height="31.5714" fill="white"/>
<rect x="674.143" y="689.714" width="31.5714" height="31.5714" fill="white"/>
<rect x="705.714" y="689.714" width="31.5714" height="31.5714" fill="white"/>
<rect x="737.286" y="689.714" width="31.5714" height="31.5714" fill="white"/>
<rect x="200.571" y="721.286" width="31.5714" height="31.5714" fill="white"/>
<rect x="547.857" y="721.286" width="31.5714" height="31.5714" fill="white"/>
<rect x="579.429" y="721.286" width="31.5714" height="31.5714" fill="white"/>
<rect x="611" y="721.286" width="31.5714" height="31.5714" fill="white"/>
<rect x="642.571" y="721.286" width="31.5714" height="31.5714" fill="white"/>
<rect x="674.143" y="721.286" width="31.5714" height="31.5714" fill="white"/>
<rect x="705.714" y="721.286" width="31.5714" height="31.5714" fill="white"/>
<rect x="232.143" y="752.857" width="31.5714" height="31.5714" fill="white"/>
<rect x="611" y="752.857" width="31.5714" height="31.5714" fill="white"/>
<rect x="642.571" y="752.857" width="31.5714" height="31.5714" fill="white"/>
<rect x="263.714" y="784.429" width="31.5714" height="31.5714" fill="white"/>
<rect x="358.429" y="816" width="31.5714" height="31.5714" fill="white"/>
<defs>
<radialGradient id="paint0_radial_1_506" cx="0" cy="0" r="1" gradientUnits="userSpaceOnUse" gradientTransform="translate(165 147.5) rotate(46.1927) scale(1087.06)">
<stop/>
<stop offset="1" stop-color="#272727"/>
</radialGradient>
</defs>
</svg>
